<mxfile host="app.diagrams.net" agent="Mozilla/5.0 (Windows NT 10.0; Win64; x64) AppleWebKit/537.36 (KHTML, like Gecko) Chrome/140.0.0.0 Safari/537.36 Edg/140.0.0.0" version="28.2.3">
  <diagram name="Página-1" id="qQu67gA0avC3N4LLNJ07">
    <mxGraphModel dx="1418" dy="820" grid="1" gridSize="10" guides="1" tooltips="1" connect="1" arrows="1" fold="1" page="1" pageScale="1" pageWidth="827" pageHeight="1169" math="0" shadow="0">
      <root>
        <mxCell id="0" />
        <mxCell id="1" parent="0" />
        <mxCell id="Q1XVkBnLcJvbtjV_UujQ-4" value="" style="edgeStyle=orthogonalEdgeStyle;rounded=0;orthogonalLoop=1;jettySize=auto;html=1;" edge="1" parent="1" source="A7Fp1b2MyOMbYTq2g-hQ-1" target="Q1XVkBnLcJvbtjV_UujQ-2">
          <mxGeometry relative="1" as="geometry" />
        </mxCell>
        <mxCell id="A7Fp1b2MyOMbYTq2g-hQ-1" value="Ínicio" style="ellipse;whiteSpace=wrap;html=1;fontStyle=1;fillColor=#ffe6cc;strokeColor=#d79b00;" parent="1" vertex="1">
          <mxGeometry x="390" y="80" width="120" height="80" as="geometry" />
        </mxCell>
        <mxCell id="Q1XVkBnLcJvbtjV_UujQ-1" value="Fim" style="ellipse;whiteSpace=wrap;html=1;fillColor=#ffe6cc;strokeColor=#d79b00;" vertex="1" parent="1">
          <mxGeometry x="390" y="610" width="120" height="80" as="geometry" />
        </mxCell>
        <mxCell id="Q1XVkBnLcJvbtjV_UujQ-5" value="" style="edgeStyle=orthogonalEdgeStyle;rounded=0;orthogonalLoop=1;jettySize=auto;html=1;" edge="1" parent="1" source="Q1XVkBnLcJvbtjV_UujQ-2" target="Q1XVkBnLcJvbtjV_UujQ-3">
          <mxGeometry relative="1" as="geometry" />
        </mxCell>
        <mxCell id="Q1XVkBnLcJvbtjV_UujQ-2" value="Ler nota" style="rounded=0;whiteSpace=wrap;html=1;fillColor=#dae8fc;strokeColor=#6c8ebf;" vertex="1" parent="1">
          <mxGeometry x="390" y="190" width="120" height="60" as="geometry" />
        </mxCell>
        <mxCell id="Q1XVkBnLcJvbtjV_UujQ-8" value="" style="edgeStyle=orthogonalEdgeStyle;rounded=0;orthogonalLoop=1;jettySize=auto;html=1;" edge="1" parent="1" source="Q1XVkBnLcJvbtjV_UujQ-3" target="Q1XVkBnLcJvbtjV_UujQ-6">
          <mxGeometry relative="1" as="geometry" />
        </mxCell>
        <mxCell id="Q1XVkBnLcJvbtjV_UujQ-10" value="Sim" style="edgeLabel;html=1;align=center;verticalAlign=middle;resizable=0;points=[];" vertex="1" connectable="0" parent="Q1XVkBnLcJvbtjV_UujQ-8">
          <mxGeometry x="0.0909" y="4" relative="1" as="geometry">
            <mxPoint as="offset" />
          </mxGeometry>
        </mxCell>
        <mxCell id="Q1XVkBnLcJvbtjV_UujQ-9" value="&lt;div&gt;Não&lt;/div&gt;" style="edgeStyle=orthogonalEdgeStyle;rounded=0;orthogonalLoop=1;jettySize=auto;html=1;" edge="1" parent="1" source="Q1XVkBnLcJvbtjV_UujQ-3" target="Q1XVkBnLcJvbtjV_UujQ-7">
          <mxGeometry relative="1" as="geometry" />
        </mxCell>
        <mxCell id="Q1XVkBnLcJvbtjV_UujQ-3" value="nota&amp;gt;9,5" style="rhombus;whiteSpace=wrap;html=1;fillColor=#e1d5e7;strokeColor=#9673a6;" vertex="1" parent="1">
          <mxGeometry x="390" y="300" width="120" height="80" as="geometry" />
        </mxCell>
        <mxCell id="Q1XVkBnLcJvbtjV_UujQ-15" style="edgeStyle=orthogonalEdgeStyle;rounded=0;orthogonalLoop=1;jettySize=auto;html=1;exitX=0.5;exitY=1;exitDx=0;exitDy=0;entryX=1;entryY=0.5;entryDx=0;entryDy=0;" edge="1" parent="1" source="Q1XVkBnLcJvbtjV_UujQ-6" target="Q1XVkBnLcJvbtjV_UujQ-11">
          <mxGeometry relative="1" as="geometry" />
        </mxCell>
        <mxCell id="Q1XVkBnLcJvbtjV_UujQ-6" value="Escrever &quot;Aprovado&quot;" style="rounded=0;whiteSpace=wrap;html=1;fillColor=#d5e8d4;strokeColor=#82b366;" vertex="1" parent="1">
          <mxGeometry x="620" y="310" width="120" height="60" as="geometry" />
        </mxCell>
        <mxCell id="Q1XVkBnLcJvbtjV_UujQ-13" value="" style="edgeStyle=orthogonalEdgeStyle;rounded=0;orthogonalLoop=1;jettySize=auto;html=1;" edge="1" parent="1" source="Q1XVkBnLcJvbtjV_UujQ-7" target="Q1XVkBnLcJvbtjV_UujQ-11">
          <mxGeometry relative="1" as="geometry" />
        </mxCell>
        <mxCell id="Q1XVkBnLcJvbtjV_UujQ-7" value="Escrever &quot;Reprovado&quot;" style="rounded=0;whiteSpace=wrap;html=1;fillColor=#d5e8d4;strokeColor=#82b366;" vertex="1" parent="1">
          <mxGeometry x="390" y="420" width="120" height="60" as="geometry" />
        </mxCell>
        <mxCell id="Q1XVkBnLcJvbtjV_UujQ-16" value="" style="edgeStyle=orthogonalEdgeStyle;rounded=0;orthogonalLoop=1;jettySize=auto;html=1;" edge="1" parent="1" source="Q1XVkBnLcJvbtjV_UujQ-11" target="Q1XVkBnLcJvbtjV_UujQ-1">
          <mxGeometry relative="1" as="geometry" />
        </mxCell>
        <mxCell id="Q1XVkBnLcJvbtjV_UujQ-11" value="" style="ellipse;whiteSpace=wrap;html=1;aspect=fixed;fillColor=#f8cecc;strokeColor=#b85450;" vertex="1" parent="1">
          <mxGeometry x="440" y="550" width="20" height="20" as="geometry" />
        </mxCell>
      </root>
    </mxGraphModel>
  </diagram>
</mxfile>
